# xmcd
#
# Track frame offsets: 
#        150
#        29009
#        53015
#        82853
#        99221
#        117187
#        135379
#        145323
#        180477
#        191019
#        220221
#        245784
#        256176
#        269168
#
# Disc length: 3813 seconds
#
# Revision: 0
# Processed by: cddbd v1.5.2PL0 Copyright (c) Steve Scherf et al.
# Submitted via: ExactAudioCopy v1.0b2
#
DISCID=c70ee30e
DTITLE=中国武警男声合唱团-郑健 - 听妈妈讲那过去的事情
DYEAR=1900
DGENRE=A Cappella
TTITLE0=弹起我心爱的土琵琶
TTITLE1=听妈妈讲那过去的事情
TTITLE2=十送红军
TTITLE3=唱支山歌给党听
TTITLE4=延安颂
TTITLE5=红军想念毛泽东
TTITLE6=地道战
TTITLE7=忆秦娥。娄山关
TTITLE8=井冈山上红太阳
TTITLE9=沁园春。雪
TTITLE10=我的祖国
TTITLE11=七律。人民解放军占领南京
TTITLE12=毛委员和我们在一起
TTITLE13=没有共产党就没有新中国
EXTD=
EXTT0=
EXTT1=
EXTT2=
EXTT3=
EXTT4=
EXTT5=
EXTT6=
EXTT7=
EXTT8=
EXTT9=
EXTT10=
EXTT11=
EXTT12=
EXTT13=
PLAYORDER=
